<svg xmlns="http://www.w3.org/2000/svg" viewBox="0 0 824 185.57"><defs><style>.cls-1{fill:#fff;}</style></defs><title>10Asset 6</title><g id="Layer_2" data-name="Layer 2"><g id="Layer_1-2" data-name="Layer 1"><path class="cls-1" d="M48.14,50.55a25.24,25.24,0,0,1-3.92-4.72c-3.53-6-3.34-12,.51-17.74a15.74,15.74,0,0,1,16.78-6.54C72.51,24,77.58,36.08,71.83,46l-.9,1.82a1.51,1.51,0,0,0,.21,1.65c2.25,2.62,5.06,5.48,7.66,8.21a1.5,1.5,0,0,0,2.26-.09c6.2-7.73,8.69-15.79,7.12-25q-.27-1.59-.66-3.09L58,0,28.35,29.68c-2.79,10.31,0,21.27,8.37,29.74q27.1,27.48,54.38,54.79a47.2,47.2,0,0,1,12.57,21.66c.28,1.08.52,2.16.75,3.32l11.64-11.64A62.54,62.54,0,0,0,101.27,104Q74.66,77.33,48.14,50.55Z"/><path class="cls-1" d="M93.36,71.23c.54,2.78,4.33,4.87,6.56,7.39,1.78,2,3.07,1.6,4.66-.25a59.89,59.89,0,0,0,11.52-20.3L104.47,46.44a46.66,46.66,0,0,1-6.53,16.86C96.28,66,92.91,69,93.36,71.23Z"/><path class="cls-1" d="M22.71,114.7c-.55-2.78-4.32-4.88-6.57-7.39-1.76-2-3-1.66-4.65.23a60.61,60.61,0,0,0-11.43,20l11.6,11.6a46.94,46.94,0,0,1,6.48-16.55C19.79,120,23.15,117,22.71,114.7Z"/><path class="cls-1" d="M79.33,126.15Q52.24,98.67,25,71.36A47.2,47.2,0,0,1,12.39,49.7c-.28-1.07-.52-2.16-.75-3.32L0,58A62.54,62.54,0,0,0,14.79,81.55Q41.4,108.24,67.91,135a25.24,25.24,0,0,1,3.92,4.72c3.53,6,3.34,12-.51,17.74A15.74,15.74,0,0,1,54.54,164c-11-2.4-16.07-14.53-10.32-24.49l.9-1.82a1.51,1.51,0,0,0-.21-1.65c-2.25-2.62-5.06-5.48-7.66-8.21a1.5,1.5,0,0,0-2.26.09c-6.2,7.73-8.69,15.79-7.12,25q.27,1.59.65,3.08L58,185.57,87.7,155.9C90.49,145.59,87.69,134.62,79.33,126.15Z"/><rect class="cls-1" x="168.53" y="129.41" width="4.6" height="31.65"/><polygon class="cls-1" points="238.69 152.49 217.25 128.67 215.66 128.66 215.66 161.06 220.1 161.06 220.1 137.91 241.74 161.72 243.21 161.72 243.21 129.41 238.69 129.41 238.69 152.49"/><path class="cls-1" d="M292.48,128.82a19.81,19.81,0,0,0-5.5-.15,19,19,0,0,0-2.21.38,20.05,20.05,0,0,0-2.81,1,12.78,12.78,0,0,0-3.67,2.45,22.77,22.77,0,0,0-3.86,4.93,14.72,14.72,0,0,0-2,7.8A15.59,15.59,0,0,0,283,160.53a18.55,18.55,0,0,0,6.26,1.06,21.06,21.06,0,0,0,4.6-.51,26.17,26.17,0,0,0,4.45-1.44l.31-.13V154l-2.92,1.85a11,11,0,0,1-5.91,1.62,13.38,13.38,0,0,1-6-1.5,10.92,10.92,0,0,1-4.64-4.44,12.68,12.68,0,0,1-1.69-6.36,13.11,13.11,0,0,1,2.22-7.28,11.82,11.82,0,0,1,4.45-3.72,13,13,0,0,1,5.58-1.22,13.86,13.86,0,0,1,8.16,2.64l.79.56v-5.35l-2.64-1.19A27.94,27.94,0,0,0,292.48,128.82Z"/><path class="cls-1" d="M345,128.54a16.84,16.84,0,0,0-16.86,16.88,15.46,15.46,0,0,0,5.11,11.71,17.27,17.27,0,0,0,12.16,4.76A16.84,16.84,0,0,0,362.31,145a15.47,15.47,0,0,0-5.11-11.71A17.28,17.28,0,0,0,345,128.54Zm12.46,16.38A12.32,12.32,0,0,1,354,153.7a11.41,11.41,0,0,1-8.54,3.66,12.35,12.35,0,0,1-8.83-3.49,11.41,11.41,0,0,1-3.64-8.54,12.37,12.37,0,0,1,3.51-8.82,11.4,11.4,0,0,1,8.54-3.66,12.33,12.33,0,0,1,8.81,3.51A11.45,11.45,0,0,1,357.5,144.92Z"/><path class="cls-1" d="M407.5,146.52l.14,0a10.14,10.14,0,0,0,3.55-1.89,8,8,0,0,0,2.09-2.92,9.48,9.48,0,0,0-1.57-9.5,7.2,7.2,0,0,0-5.74-2.66l-11.85-.13v31.65H399V146.42l10.76,14.63H416l-11.51-14.53Zm1.48-7.91a4.81,4.81,0,0,1-1,3.07,3.21,3.21,0,0,1-2.69,1.2H399V133.6h5.34a4.25,4.25,0,0,1,1,.13,8.89,8.89,0,0,1,1.07.33,3.89,3.89,0,0,1,1.94,1.76A5.75,5.75,0,0,1,409,138.61Z"/><path class="cls-1" d="M468.64,132a10.13,10.13,0,0,0-5.82-2.5l-10.45-.13v31.65h4.77V147.22h5.95a8.58,8.58,0,0,0,5.73-2.79,8.48,8.48,0,0,0,2.19-5.85v-1.07A7.09,7.09,0,0,0,468.64,132Zm-2.47,6.26a5.27,5.27,0,0,1-.95,3,4.57,4.57,0,0,1-2.48,1.82h-5.6v-9.48h4.39a11.1,11.1,0,0,1,1.93.47,4.06,4.06,0,0,1,2,1.65A4.78,4.78,0,0,1,466.17,138.3Z"/><path class="cls-1" d="M519,128.54a16.84,16.84,0,0,0-16.86,16.88,15.46,15.46,0,0,0,5.11,11.71,17.28,17.28,0,0,0,12.17,4.76A16.84,16.84,0,0,0,536.25,145a15.47,15.47,0,0,0-5.11-11.71A17.28,17.28,0,0,0,519,128.54Zm12.46,16.38a12.32,12.32,0,0,1-3.51,8.78,11.41,11.41,0,0,1-8.54,3.66,12.35,12.35,0,0,1-8.83-3.49,11.41,11.41,0,0,1-3.64-8.54,12.37,12.37,0,0,1,3.51-8.82,11.4,11.4,0,0,1,8.54-3.66,12.33,12.33,0,0,1,8.81,3.51A11.45,11.45,0,0,1,531.44,144.92Z"/><path class="cls-1" d="M581.43,146.52l.14,0a10.16,10.16,0,0,0,3.55-1.89,8,8,0,0,0,2.09-2.92,9.48,9.48,0,0,0-1.57-9.5,7.2,7.2,0,0,0-5.74-2.66L568,129.4v31.65h4.85V146.42l10.76,14.63h6.27l-11.51-14.53Zm1.48-7.91a4.81,4.81,0,0,1-1,3.07,3.21,3.21,0,0,1-2.69,1.2H572.9V133.6h5.34a4.25,4.25,0,0,1,1,.13,8.83,8.83,0,0,1,1.07.33,3.89,3.89,0,0,1,1.94,1.76A5.75,5.75,0,0,1,582.92,138.61Z"/><path class="cls-1" d="M633.36,128.54l-13.89,32.52h5.06l3.93-9.52H640l3.92,9.52h5.4L635,128.54Zm5.07,19.22h-8.67L634,136.42Z"/><polygon class="cls-1" points="681.44 133.64 690.26 133.64 690.26 161.06 695.07 161.06 695.07 133.64 703.89 133.64 703.89 129.41 681.44 129.41 681.44 133.64"/><polygon class="cls-1" points="741.57 161.06 759.22 161.06 759.22 156.74 746.25 156.74 746.25 145.94 759.22 145.94 759.22 141.79 746.25 141.79 746.25 133.72 759.22 133.72 759.22 129.41 741.57 129.41 741.57 161.06"/><path class="cls-1" d="M820.12,134.77a13.09,13.09,0,0,0-9.64-5.36H796.94v31.65H809a12.24,12.24,0,0,0,3.32-.47,19.91,19.91,0,0,0,3.31-1.27,13,13,0,0,0,6-5.64,17.08,17.08,0,0,0,2-8.15A17.66,17.66,0,0,0,820.12,134.77Zm-18.58-1h8.64a10.64,10.64,0,0,1,5.71,3.39,10.45,10.45,0,0,1,2.67,6.09v0a12.09,12.09,0,0,1,.12,1.71,13.42,13.42,0,0,1-2.68,8.19,8.28,8.28,0,0,1-7.05,3.53h-7.41Z"/><path class="cls-1" d="M197.85,53.47,182.71,47.9c-3.21-1.73-4.78-4.23-4.78-7.64a10.28,10.28,0,0,1,.9-4.16,8.45,8.45,0,0,1,3.47-3.6,10.72,10.72,0,0,1,5-1.1,12.4,12.4,0,0,1,7.08,2.19,9.36,9.36,0,0,1,4,5.66l.14.6,7.27-3.41-.13-.42a15.84,15.84,0,0,0-4.91-7.35,15.29,15.29,0,0,0-6.62-3.59c-2-.41-3.26-.63-3.76-.69a20,20,0,0,0-2.05-.08,35.6,35.6,0,0,0-6.86.77,13.46,13.46,0,0,0-7.27,4.43,14.84,14.84,0,0,0-3.92,6.92,28.11,28.11,0,0,0-.61,4.45,14.22,14.22,0,0,0,2.9,8.74,20,20,0,0,0,7.59,6l10.2,3.59a37.13,37.13,0,0,1,4,2A16.06,16.06,0,0,1,197,63.63c1.05,1.12,1.58,2.91,1.58,5.32a10.9,10.9,0,0,1-1,4.65,9.06,9.06,0,0,1-2.73,3.48,11.64,11.64,0,0,1-7.18,2.45,11.59,11.59,0,0,1-8.14-3.23,10.57,10.57,0,0,1-3.44-8v-.81l-7.58,3.83.11.4a32,32,0,0,0,2.73,6.87,15.89,15.89,0,0,0,4.46,4.86,22.41,22.41,0,0,0,11.7,3.19,22,22,0,0,0,12.89-4,18.2,18.2,0,0,0,6.41-13.94A17.62,17.62,0,0,0,204.47,60,16.59,16.59,0,0,0,197.85,53.47Z"/><path class="cls-1" d="M253.5,23.68,227.08,85.56h8.75l7.59-18.39h22.92l7.57,18.39h9.41L256.08,23.68ZM263.67,60.8h-18.1l8.9-23.66Z"/><path class="cls-1" d="M332.89,57.48l.14,0a19.14,19.14,0,0,0,6.67-3.55,15,15,0,0,0,3.92-5.46,17.14,17.14,0,0,0,1.2-6.43,17.32,17.32,0,0,0-4.16-11.44,13.46,13.46,0,0,0-10.74-5l-22.43-.25V85.56h8.44V56.35l21.49,29.22,10.91,0L326.09,57.47Zm-17-25h10.78a8.67,8.67,0,0,1,2,.27,17.49,17.49,0,0,1,2.13.66,8.06,8.06,0,0,1,4,3.62,11.55,11.55,0,0,1,1.38,5.6,9.75,9.75,0,0,1-2,6.21,6.63,6.63,0,0,1-5.57,2.49h-12.7Z"/><path class="cls-1" d="M389.5,23.68,363.08,85.56h8.75l7.59-18.39h22.92l7.57,18.39h9.41L392.08,23.68ZM399.67,60.8h-18.1l8.9-23.66Z"/><path class="cls-1" d="M537.8,53.46a11.73,11.73,0,0,0,5.67-5.07,14.12,14.12,0,0,0,2-7.09,15.18,15.18,0,0,0-4.7-10.93,15.41,15.41,0,0,0-11.31-4.76l-18.91-.25V85.56h21.78a27.42,27.42,0,0,0,4.81-1.27,22.76,22.76,0,0,0,4.37-2.12,15.81,15.81,0,0,0,4.83-6,18.46,18.46,0,0,0,1.6-7.67,16.85,16.85,0,0,0-3.09-9.91A13.14,13.14,0,0,0,537.8,53.46ZM535,48.21a9.76,9.76,0,0,1-6.1,3.16H518.33V32.52h8.14a12.17,12.17,0,0,1,6.81,1.94,8.68,8.68,0,0,1,3.74,5.4,9.5,9.5,0,0,0,.08,1,8.69,8.69,0,0,1,.08,1A9.43,9.43,0,0,1,535,48.21ZM518.33,79V58.12h10.94a10.05,10.05,0,0,1,3.28.58,13.27,13.27,0,0,1,3.06,1.51,10.38,10.38,0,0,1,2.92,3.69,10.89,10.89,0,0,1,1,4.56,10.68,10.68,0,0,1-2.37,6.89,9.57,9.57,0,0,1-6.42,3.45Z"/><polygon class="cls-1" points="578.7 85.56 611.86 85.56 611.86 78.16 586.82 78.16 586.82 56.36 611.86 56.36 611.86 49.28 586.82 49.28 586.82 32.76 611.86 32.76 611.86 25.36 578.7 25.36 578.7 85.56"/><polygon class="cls-1" points="656.01 25.36 647.65 25.36 647.65 85.56 677.86 85.56 677.86 78.16 656.01 78.16 656.01 25.36"/><path class="cls-1" d="M729.5,23.68,703.08,85.56h8.75l7.59-18.39h22.92l7.57,18.39h9.41L732.08,23.68ZM739.67,60.8h-18.1l8.9-23.66Z"/><polygon class="cls-1" points="814.61 25.39 800.41 51.22 785.5 25.35 775.5 25.36 795.98 58.65 795.98 85.56 804.17 85.56 804.17 58.64 824 25.36 814.61 25.39"/></g></g></svg>